<svg xmlns="http://www.w3.org/2000/svg" xmlns:xlink="http://www.w3.org/1999/xlink" viewBox="0 0 1366.61 768">
  <defs>
    <style>
      .cls-1 {
        fill: url(#linear-gradient);
      }

      .cls-2 {
        fill: #555678;
      }

      .cls-3 {
        fill: #313245;
      }

      .cls-4 {
        fill: #222535;
      }

      .cls-5 {
        fill: #292632;
      }

      .cls-6 {
        fill: url(#linear-gradient-2);
      }
    </style>
    <linearGradient id="linear-gradient" x1="622.5" y1="579.55" x2="744.04" y2="-109.76" gradientUnits="userSpaceOnUse">
      <stop offset="0" stop-color="#dfdfdf"/>
      <stop offset="0.2" stop-color="#ded9c6"/>
      <stop offset="0.5" stop-color="#d4bfd1"/>
      <stop offset="0.8" stop-color="#6d89af"/>
      <stop offset="1" stop-color="#466085"/>
    </linearGradient>
    <linearGradient id="linear-gradient-2" x1="683.24" y1="768" x2="683.24" y2="425.65" gradientUnits="userSpaceOnUse">
      <stop offset="0" stop-color="#324460"/>
      <stop offset="0.7" stop-color="#33486d"/>
      <stop offset="1" stop-color="#535c7d"/>
    </linearGradient>
  </defs>
  <title>front-illustration</title>
  <g id="Layer_5" data-name="Layer 5">
    <rect id="Sky" class="cls-1" x="0.02" width="1366.5" height="469.79"/>
  </g>
  <g id="Layer_4" data-name="Layer 4">
    <path id="mountains" class="cls-2" d="M435.25,396.35c11.08.59,39.38,19.46,57.76,10.81,15.5-7.28,48.39-10.3,60.4-11.6,29.33-3.17,54.85,15,75.38,9.19,10.07-2.86,35.16-9.51,49.77-10.51,69.22-4.75,89,29.16,89,36.5S330,447.41,330,447.41,395.69,394.24,435.25,396.35Z" transform="translate(0.07)"/>
    <path id="hill" class="cls-3" d="M975.87,383.7c-206.7-23.41-256.84,5-388.65,48.72l373.92-6.77Z" transform="translate(0.07)"/>
    <path id="hill-2" data-name="hill" class="cls-3" d="M342,379.34c60.14,8.7,121.91,24.35,161,56.35.11.09-158,8-158,8Z" transform="translate(0.07)"/>
  </g>
  <g id="Layer_3" data-name="Layer 3">
    <path id="hill-3" data-name="hill" class="cls-4" d="M.05,166c200,80,327,167.65,455.56,271.76C456,438.08.05,469.69.05,469.69Z" transform="translate(0.07)"/>
    <path id="trees_left" data-name="trees left" class="cls-4" d="M348,365.46l-6.44-72.23-8.42,26.63-4.22-26.57-4,12.77-2.92-18.35-2.4,7.59-3.17-20-6.91,21.84-6.32-39.75-7.25,23L290.25,245l-7.62,24.09-5.27-33.2-5.17,16.37,0-.06-8.26,26.15L253.69,214.1l-6.09,19.27L238,263.93l0-.28-2.77-17.39-1.69,5.35-5.67-35.71-2.1,6.64-1.79-11.28-13,41.19-2.1-13.15-.71,2.26-6.78-42.64L186.16,246.8l-5.91-37.16-4.4,13.91-4.36-27.48-9.27,29.32L156,186l-16.87,53.36-9.38-59-2.66,8.43-.9-5.64-11.72,37.12L107,173.86l-5.13,16.23-2-12.59L85.52,223.05l-8.28-52L70.42,192.6l-7-44.3L44.86,206.89l-.8-5L47,181.18l-5,7.31-2.08,3-8.28,12L36,172.16,24.07,189.47l2.39-42.09L7.18,165.55l3.16-22.41L0,158.16.05,296.7h0c6.43-.7,11.07-1.6,11.07-1.6l1.38-9.76c1.49.87,3.07,1.76,4.69,2.63l-6.25,19.79a149.16,149.16,0,0,0,20.43,12.43c10.14,5,24.17,6.07,24.17,6.07l-2.69-16.94c.91.27,1.81.52,2.71.75a134.13,134.13,0,0,0,11.86,6.66c10.12,5,24.16,6.07,24.16,6.07l-1.81-11.41c1.64.91,3.34,1.81,5.07,2.65,1,.47,2,.91,3,1.32a135.6,135.6,0,0,0,12.43,7c10.14,5,24.17,6.07,24.17,6.07l-.08-.53a95.14,95.14,0,0,0,10,1.9c1.7.94,3.48,1.88,5.29,2.76,10.14,5,24.17,6.08,24.17,6.08l-.48-3c2.65,1.58,5.6,3.22,8.62,4.7,10.13,5,24.16,6.07,24.16,6.07l-.85-5.37a85.64,85.64,0,0,0,20.46,4.47l0-.23c.73.38,1.48.76,2.22,1.12,10.14,5,24.17,6.08,24.17,6.08l-1.31-8.25a139.36,139.36,0,0,0,14.19,8.14c10.12,5,24.16,6.07,24.16,6.07l-.78-5c2.35,1.39,17.61,6.27,20.25,7.56C312.91,363.16,348,365.46,348,365.46Z" transform="translate(0.07)"/>
  </g>
  <g id="Layer_2" data-name="Layer 2">
    <path id="hill-4" data-name="hill" class="cls-5" d="M1366.44,310.69c-155,40-377,50-523,116-.4.19,523,5,523,5Z" transform="translate(0.07)"/>
    <path id="trees_right" data-name="trees right" class="cls-5" d="M1362.61,411.89a137.63,137.63,0,0,1-20.06,8.85c-9.81,3.3-22.7,2.62-22.7,2.62l4.48-15.08q-1.29.21-2.55.36a123.41,123.41,0,0,1-11.58,4.63c-9.8,3.3-22.69,2.62-22.69,2.62l3-10.15c-1.6.63-3.25,1.24-4.92,1.8-.93.31-1.89.59-2.86.84a125.22,125.22,0,0,1-12.14,4.89c-9.81,3.3-22.7,2.62-22.7,2.62l.14-.47a85.82,85.82,0,0,1-9.29.53c-1.66.65-3.39,1.29-5.14,1.88-9.81,3.3-22.7,2.62-22.7,2.62l.8-2.69c-2.6,1.12-5.47,2.25-8.4,3.24-9.8,3.3-22.69,2.62-22.69,2.62l1.42-4.78a78.34,78.34,0,0,1-19.13,1.61l.06-.21c-.71.26-1.43.52-2.15.76-9.81,3.3-22.7,2.62-22.7,2.62l2.18-7.34a128.85,128.85,0,0,1-13.87,5.7c-9.8,3.3-22.69,2.62-22.69,2.62l1.31-4.43c-2.31,1-4.81,1.94-7.36,2.8-9.81,3.3-22.7,2.62-22.7,2.62l1.72-5.78a65.42,65.42,0,0,1-9.91.39l2.06-6.94a46,46,0,0,1-9.32.61l.87-2.92a41.42,41.42,0,0,1-12.35,1.35l15.82-53.25,4.46,25.21,7-23.64,2.14,12.09,4.85-16.33,1.27,7.19,5.28-17.78,3.66,20.68,10.51-35.38,3.84,21.74,9.34-31.44,4,22.81,8.77-29.54,2.74,15.5,0-.06,4.38,24.76,17-57.21,3.23,18.25,5.11,28.93.07-.25,4.6-15.47.89,5.06,9.44-31.77,1.11,6.28,3-10,6.89,39,3.48-11.7.38,2.14,11.27-37.94,8,45.33,9.83-33.07,2.33,13.17,7.26-24.45,4.91,27.76,10.42-35.07,8.93,50.52,15.6-52.5,1.41,8,1.49-5,6.21,35.15,12.27-41.28L1294,294l3.33-11.21L1305,326l13.76-46.3,3.61,20.43,11.71-39.42,9.81,55.48,5.49-18.49,5.05,28.58,8.09-25.65Z" transform="translate(0.07)"/>
  </g>
  <g id="Layer_1" data-name="Layer 1">
    <path id="snowice" class="cls-6" d="M1366.55,768l-.5-338.43c-421-8.2-861-6.47-1366,34.05L-.07,768Z" transform="translate(0.07)"/>
  </g>
</svg>
