<svg id="Layer_1" data-name="Layer 1" xmlns="http://www.w3.org/2000/svg" viewBox="0 0 503.7 424.2"><defs><style>.cls-1{fill:none;stroke:#000;stroke-miterlimit:10;stroke-width:8px;}</style></defs><path id="eye1" class="cls-1" d="M60.5,461.5l31.8-75.2S-37.8,244.7,25.8,152.1,205.1,36.5,283.2,48s199.5,55,219.7,156.2S257.1,383.4,257.1,383.4l-20.2,78.1Z" transform="translate(-4.3 -41.3)"/><path id="eye2" class="cls-1" d="M303.4,233.1c-57.8-20.3-2.9-107,54.9-89.6C411.8,159.5,364,254.3,303.4,233.1Z" transform="translate(-4.3 -41.3)"/><path id="skull" class="cls-1" d="M103.9,210c-41.9-30.3,19.9-97.9,54.9-75.2C208,166.6,155.9,247.5,103.9,210Z" transform="translate(-4.3 -41.3)"/><g id="teeth"><line class="cls-1" x1="78.9" y1="420.2" x2="96.7" y2="372.5"/><line class="cls-1" x1="99.6" y1="420.2" x2="111.1" y2="368.2"/><line class="cls-1" x1="121.7" y1="420.2" x2="128.5" y2="362.4"/><line class="cls-1" x1="143.8" y1="420.2" x2="151.6" y2="372.5"/><line class="cls-1" x1="171.9" y1="417.7" x2="177.6" y2="368.2"/><line class="cls-1" x1="197.9" y1="417.7" x2="200.8" y2="372.5"/><line class="cls-1" x1="218.1" y1="417.7" x2="223.9" y2="372.5"/></g><path id="nose1" class="cls-1" d="M147.3,316.9c-3.6,14.3,14.4-8.6,14.4-8.6S150.2,305.4,147.3,316.9Z" transform="translate(-4.3 -41.3)"/><path id="nose2" class="cls-1" d="M193.1,316.9c3.5,14.3-14.5-8.6-14.5-8.6S190.2,305.4,193.1,316.9Z" transform="translate(-4.3 -41.3)"/></svg>