<svg xmlns="http://www.w3.org/2000/svg" viewBox="0 0 511.81 511.81">
  <defs>
    <style>
      .a {
        fill: #4A148C;
      }
    </style>
  </defs>
  <g>
    <circle class="a" cx="255.91" cy="184.24" r="89.86"/>
    <path class="a" d="M491.79,156.39A255.89,255.89,0,1,0,121.24,473.62a252.36,252.36,0,0,0,24.35,13.3c3.55,1.71,7.15,3.32,10.8,4.87a256.75,256.75,0,0,0,199.22,0c3.65-1.55,7.25-3.16,10.8-4.87a252.36,252.36,0,0,0,24.35-13.3,256.19,256.19,0,0,0,101-317.23ZM239.72,361.65,248.44,301h15.12l8.72,60.68L256,376.35ZM390.6,450.11c-1.19-86.8-11-153.49-92.47-169.53a75.64,75.64,0,0,1-84.26,0c-81.45,16-91.28,82.73-92.47,169.53C60,407.39,19.71,336.31,19.71,256c0-130.29,106-236.29,236.29-236.29S492.29,125.71,492.29,256C492.29,336.31,452,407.39,390.6,450.11Z" transform="translate(-0.09 -0.1)"/>
  </g>
</svg>
